<svg xmlns="http://www.w3.org/2000/svg" viewBox="0 0 236.38 115.91"><defs><style>.cls-1{fill:#1d1d1b;}.cls-2{fill:#1e1e1c;}</style></defs><g id="Calque_2" data-name="Calque 2"><g id="Calque_1-2" data-name="Calque 1"><path class="cls-1" d="M26.85,61.92Q30.43,65.34,30.44,72V94.86H27.12V88.43a12,12,0,0,1-5,4.94,16.72,16.72,0,0,1-7.95,1.76q-6,0-9.51-2.83a9.81,9.81,0,0,1-.28-14.76q3.23-2.81,10.27-2.8H27v-2.9c0-3.37-.91-5.92-2.73-7.68s-4.48-2.62-8-2.62a19.23,19.23,0,0,0-6.88,1.24A17.27,17.27,0,0,0,3.83,66.1L2.1,63.61a19.17,19.17,0,0,1,6.5-3.77,23.54,23.54,0,0,1,8-1.35Q23.26,58.49,26.85,61.92Zm-4.6,28.31a12.62,12.62,0,0,0,4.73-6V77.44H14.68q-5.32,0-7.71,1.93A6.49,6.49,0,0,0,4.59,84.7a6.65,6.65,0,0,0,2.62,5.56q2.63,2,7.4,2A13.59,13.59,0,0,0,22.25,90.23Z"/><path class="cls-1" d="M44.41,49.2a2.6,2.6,0,0,1-.83-2,2.7,2.7,0,0,1,.83-2,2.73,2.73,0,0,1,2-.83,2.79,2.79,0,0,1,2,.8,2.58,2.58,0,0,1,.83,2,2.7,2.7,0,0,1-.83,2,2.73,2.73,0,0,1-2,.83A2.78,2.78,0,0,1,44.41,49.2Zm.27,9.57h3.46V94.86H44.68Z"/><path class="cls-1" d="M62.72,43.56h3.46v51.3H62.72Z"/><path class="cls-1" d="M129,77.64H98a15.07,15.07,0,0,0,2.14,7.5,13.78,13.78,0,0,0,5.43,5.09,17.41,17.41,0,0,0,14.24.51,12.72,12.72,0,0,0,5-3.76l2,2.28a15.39,15.39,0,0,1-5.91,4.35,20.6,20.6,0,0,1-17.32-.83A17,17,0,0,1,97,86.29a18.7,18.7,0,0,1-2.39-9.48,19.58,19.58,0,0,1,2.25-9.43A16.53,16.53,0,0,1,103,60.84a17.86,17.86,0,0,1,17.66,0,16.56,16.56,0,0,1,6.15,6.46,19.42,19.42,0,0,1,2.25,9.41ZM105,63.23A12.88,12.88,0,0,0,100.16,68a15.39,15.39,0,0,0-2.11,7H125.7A14.58,14.58,0,0,0,123.63,68a13.4,13.4,0,0,0-11.76-6.49A13.82,13.82,0,0,0,105,63.23Z"/><path class="cls-1" d="M171.4,58.77V94.86h-3.32V87.11A13.43,13.43,0,0,1,162.75,93a15.89,15.89,0,0,1-8.29,2.1q-7.05,0-11.06-3.94t-4-11.33V58.77h3.45V79.58q0,6.09,3.12,9.26C148,91,151,92,154.73,92q6.09,0,9.65-3.8T167.94,78V58.77Z"/><path class="cls-1" d="M194.55,60.6a16.49,16.49,0,0,1,8.58-2.11v3.39l-.83-.07q-6,0-9.41,3.77t-3.38,10.47V94.86h-3.46V58.77h3.32v7.88A12.46,12.46,0,0,1,194.55,60.6Z"/><path class="cls-1" d="M213.84,93.82a16.94,16.94,0,0,1-6.15-3.32l1.59-2.76a18.28,18.28,0,0,0,5.7,3.11,21.57,21.57,0,0,0,7.3,1.24q5.46,0,8.05-1.79a5.73,5.73,0,0,0,2.59-5,4.66,4.66,0,0,0-1.42-3.6A8.65,8.65,0,0,0,228,79.79a56.94,56.94,0,0,0-5.73-1.32,46.88,46.88,0,0,1-6.92-1.66,10.67,10.67,0,0,1-4.49-2.9A7.78,7.78,0,0,1,209,68.38a8.67,8.67,0,0,1,3.56-7.09q3.57-2.79,10.13-2.8a25,25,0,0,1,6.84,1A17.12,17.12,0,0,1,235.06,62l-1.59,2.77a16.35,16.35,0,0,0-5-2.42,20.35,20.35,0,0,0-5.81-.83c-3.36,0-5.9.62-7.6,1.86a5.8,5.8,0,0,0-2.56,4.91,4.89,4.89,0,0,0,1.45,3.77,9,9,0,0,0,3.56,2q2.11.66,5.91,1.42a50.59,50.59,0,0,1,6.81,1.63,10.3,10.3,0,0,1,4.39,2.8,7.5,7.5,0,0,1,1.8,5.32,8.45,8.45,0,0,1-3.74,7.19c-2.48,1.8-6,2.69-10.5,2.69A26,26,0,0,1,213.84,93.82Z"/><path class="cls-1" d="M2.25,115.36A4.15,4.15,0,0,1,.6,113.82a4.5,4.5,0,0,1,0-4.49,4.15,4.15,0,0,1,1.65-1.54,5,5,0,0,1,2.37-.55,5.27,5.27,0,0,1,2.16.42,4,4,0,0,1,1.56,1.24l-1.76,1.57a2.3,2.3,0,0,0-1.82-1,1.88,1.88,0,0,0-1.41.56,2.43,2.43,0,0,0,0,3,1.88,1.88,0,0,0,1.41.56,2.27,2.27,0,0,0,1.82-1l1.76,1.57a4,4,0,0,1-1.56,1.24,5.27,5.27,0,0,1-2.16.42A5,5,0,0,1,2.25,115.36Z"/><path class="cls-1" d="M10.92,115.36a4.34,4.34,0,0,1-1.68-6,4.17,4.17,0,0,1,1.68-1.54,5,5,0,0,1,2.4-.56,5,5,0,0,1,2.41.56,4.33,4.33,0,0,1,1.67,6,4.3,4.3,0,0,1-1.67,1.55,5.15,5.15,0,0,1-2.41.55A5.11,5.11,0,0,1,10.92,115.36Zm3.34-2a1.79,1.79,0,0,0,.67-.72,2.52,2.52,0,0,0,0-2.19,1.79,1.79,0,0,0-.67-.72,1.83,1.83,0,0,0-1.88,0,1.87,1.87,0,0,0-.67.72,2.52,2.52,0,0,0,0,2.19,1.87,1.87,0,0,0,.67.72,1.83,1.83,0,0,0,1.88,0Z"/><path class="cls-1" d="M27.2,107.43v8.29H24.9L21.75,112v3.77H19v-8.29h2.3l3.15,3.77v-3.77Z"/><path class="cls-1" d="M29.63,115.68a5.29,5.29,0,0,1-1.6-.62l.9-2a5.71,5.71,0,0,0,1.33.55,5.13,5.13,0,0,0,1.41.21,2.35,2.35,0,0,0,.83-.11.38.38,0,0,0,.25-.34q0-.26-.33-.39a7.73,7.73,0,0,0-1.07-.29,10.56,10.56,0,0,1-1.6-.43,2.73,2.73,0,0,1-1.12-.76,2.07,2.07,0,0,1-.47-1.43,2.41,2.41,0,0,1,.44-1.42,2.89,2.89,0,0,1,1.31-1,5.31,5.31,0,0,1,2.11-.37,7.86,7.86,0,0,1,1.68.18,5.08,5.08,0,0,1,1.45.54l-.84,2a5.17,5.17,0,0,0-2.31-.62c-.72,0-1.08.18-1.08.52,0,.17.11.29.32.38a6.54,6.54,0,0,0,1.05.26,11.13,11.13,0,0,1,1.6.41,2.91,2.91,0,0,1,1.14.75,2,2,0,0,1,.48,1.43,2.43,2.43,0,0,1-.44,1.41,2.91,2.91,0,0,1-1.31,1,5.36,5.36,0,0,1-2.12.37A8.49,8.49,0,0,1,29.63,115.68Z"/><path class="cls-1" d="M43.23,113.61v2.11H36.34v-8.29h6.74v2.11h-4v1h3.51v2H39.08v1.09Z"/><path class="cls-1" d="M44.31,107.43h2.8v8.29h-2.8Z"/><path class="cls-1" d="M48.46,107.43h2.8v6.12H55v2.17H48.46Z"/><path class="cls-1" d="M65.32,107.81a2.86,2.86,0,0,1,1.78,2.75,3,3,0,0,1-.46,1.66,3,3,0,0,1-1.32,1.09,5,5,0,0,1-2,.37h-1.2v2H59.33v-8.29h4A4.79,4.79,0,0,1,65.32,107.81ZM64,111.27a1,1,0,0,0,0-1.43,1.23,1.23,0,0,0-.85-.26h-1v2h1A1.23,1.23,0,0,0,64,111.27Z"/><path class="cls-1" d="M70.07,115.36a4.3,4.3,0,0,1-1.67-1.55,4.24,4.24,0,0,1,1.67-6,5.47,5.47,0,0,1,4.82,0,4.33,4.33,0,0,1,1.67,6,4.3,4.3,0,0,1-1.67,1.55,5.56,5.56,0,0,1-4.82,0Zm3.35-2a1.79,1.79,0,0,0,.67-.72,2.52,2.52,0,0,0,0-2.19,1.79,1.79,0,0,0-.67-.72,1.83,1.83,0,0,0-1.88,0,1.79,1.79,0,0,0-.67.72,2.52,2.52,0,0,0,0,2.19,1.79,1.79,0,0,0,.67.72,1.83,1.83,0,0,0,1.88,0Z"/><path class="cls-1" d="M79.18,114.88A3.8,3.8,0,0,1,78.11,112v-4.56h2.8v4.48a2.1,2.1,0,0,0,.32,1.32,1.12,1.12,0,0,0,.94.42,1.14,1.14,0,0,0,1-.42,2.17,2.17,0,0,0,.32-1.32v-4.48h2.75V112a3.8,3.8,0,0,1-1.07,2.89,4.8,4.8,0,0,1-5.94,0Z"/><path class="cls-1" d="M91,113.64h-.76v2.08h-2.8v-8.29h4a4.81,4.81,0,0,1,2,.38,2.83,2.83,0,0,1,1.31,1.09,3.15,3.15,0,0,1,.06,3.21,2.82,2.82,0,0,1-1.16,1l1.74,2.56h-3Zm1.11-3.8a1.23,1.23,0,0,0-.85-.26h-1v2h1a1.23,1.23,0,0,0,.85-.26,1.05,1.05,0,0,0,0-1.43Z"/><path class="cls-1" d="M101.78,115.36a4.12,4.12,0,0,1-1.66-1.54,4.5,4.5,0,0,1,0-4.49,4.12,4.12,0,0,1,1.66-1.54,5,5,0,0,1,2.37-.55,5.25,5.25,0,0,1,2.15.42,4.07,4.07,0,0,1,1.57,1.24l-1.77,1.57a2.28,2.28,0,0,0-1.81-1,1.85,1.85,0,0,0-1.41.56,2.4,2.4,0,0,0,0,3,1.85,1.85,0,0,0,1.41.56,2.25,2.25,0,0,0,1.81-1l1.77,1.57a4.07,4.07,0,0,1-1.57,1.24,5.25,5.25,0,0,1-2.15.42A5,5,0,0,1,101.78,115.36Z"/><path class="cls-1" d="M116.85,107.43v8.29h-2.8v-3h-2.58v3h-2.8v-8.29h2.8v2.94h2.58v-2.94Z"/><path class="cls-1" d="M123.85,114.28H120.7l-.56,1.44H117.3l3.63-8.29h2.75l3.62,8.29h-2.89Zm-.77-2-.8-2.08-.81,2.08Z"/><path class="cls-1" d="M135.93,107.43v8.29h-2.3L130.48,112v3.77h-2.73v-8.29h2.3l3.15,3.77v-3.77Z"/><path class="cls-1" d="M142.77,111.35h2.43v3.51a5.59,5.59,0,0,1-1.71.78,7.1,7.1,0,0,1-1.91.27,5,5,0,0,1-2.38-.55,4.15,4.15,0,0,1-1.65-1.54,4.5,4.5,0,0,1,0-4.49,4.08,4.08,0,0,1,1.67-1.54,5.17,5.17,0,0,1,2.42-.55,5.45,5.45,0,0,1,2.19.41,4.06,4.06,0,0,1,1.6,1.19l-1.79,1.57a2.4,2.4,0,0,0-1.86-.91,2,2,0,0,0-1.47.56,2.38,2.38,0,0,0,0,3,1.89,1.89,0,0,0,1.44.57,2.76,2.76,0,0,0,1-.2Z"/><path class="cls-1" d="M153.29,113.61v2.11h-6.9v-8.29h6.75v2.11h-4v1h3.51v2h-3.51v1.09Z"/><path class="cls-1" d="M157.92,113.64h-.75v2.08h-2.8v-8.29h4a4.81,4.81,0,0,1,2,.38,2.88,2.88,0,0,1,1.31,1.09,3.21,3.21,0,0,1,.06,3.21,2.89,2.89,0,0,1-1.16,1l1.74,2.56h-3Zm1.12-3.8a1.23,1.23,0,0,0-.85-.26h-1v2h1a1.23,1.23,0,0,0,.85-.26,1.05,1.05,0,0,0,0-1.43Z"/><path class="cls-1" d="M166.75,107.43h2.8v6.12h3.75v2.17h-6.55Z"/><path class="cls-1" d="M181,113.61v2.11h-6.89v-8.29h6.74v2.11h-4v1h3.51v2h-3.51v1.09Z"/><path class="cls-1" d="M193,115.72l0-3.78-1.8,3h-1.24l-1.8-2.91v3.65H185.6v-8.29h2.29l2.71,4.42,2.63-4.42h2.3l0,8.29Z"/><path class="cls-1" d="M198.84,115.36a4.3,4.3,0,0,1-1.67-1.55,4.24,4.24,0,0,1,1.67-6,5.47,5.47,0,0,1,4.82,0,4.33,4.33,0,0,1,1.67,6,4.3,4.3,0,0,1-1.67,1.55,5.56,5.56,0,0,1-4.82,0Zm3.35-2a1.79,1.79,0,0,0,.67-.72,2.52,2.52,0,0,0,0-2.19,1.79,1.79,0,0,0-.67-.72,1.83,1.83,0,0,0-1.88,0,1.79,1.79,0,0,0-.67.72,2.52,2.52,0,0,0,0,2.19,1.79,1.79,0,0,0,.67.72,1.83,1.83,0,0,0,1.88,0Z"/><path class="cls-1" d="M215.13,107.43v8.29h-2.3L209.68,112v3.77H207v-8.29h2.3l3.15,3.77v-3.77Z"/><path class="cls-1" d="M216.48,107.43h4.09a5.69,5.69,0,0,1,2.44.5,3.87,3.87,0,0,1,1.65,1.44,4.42,4.42,0,0,1,0,4.41,3.87,3.87,0,0,1-1.65,1.44,5.54,5.54,0,0,1-2.44.5h-4.09Zm4,6.11a2,2,0,0,0,1.44-.51,2.23,2.23,0,0,0,0-2.91,2,2,0,0,0-1.44-.51h-1.17v3.93Z"/><path class="cls-1" d="M233.17,113.61v2.11h-6.9v-8.29H233v2.11h-4v1h3.51v2H229v1.09Z"/><path class="cls-1" d="M78.32,0h3.45V95.13H78.32Z"/><text/><path class="cls-2" d="M100.59,5.08l3.57,2.51s0,0,0,0L101,10.32l-1.69.29-17.87.67h-.07l-.15-2.82s0,0,0,0l-.06-2.82.07,0,17.87-.67Z"/><path class="cls-2" d="M67.72,18.42,65,16.11s0,0,0,0l1.92-2.88,1.15-.37,12.35-1.6h0l.39,2.8s0,0,0,0l.33,2.8,0,0-12.35,1.6Z"/><path class="cls-2" d="M72.8,27.81a.18.18,0,0,1-.07-.11l-.54-3.3h0c0,.17-.09.13,0,0l1.56-1.72a.21.21,0,0,1,.11-.08l.52-.08,5.53,1.2.15.23-.54,2.58s0,0,0,0l-.58,2.6-.21.13-5.55-1.2Z"/></g></g></svg>