<svg xmlns="http://www.w3.org/2000/svg" viewBox="0 0 26.96 15.79"><g id="Calque_2" data-name="Calque 2"><g id="Calque_1-2" data-name="Calque 1"><path d="M0,7.92A9.07,9.07,0,0,1,.6,4.48,6.87,6.87,0,0,1,2.29,2,7,7,0,0,1,4.8.5,9.46,9.46,0,0,1,7.9,0,11.24,11.24,0,0,1,9.7.12c.48.08.9.17,1.25.26s.68.18,1,.24L11.44,4c-.15-.1-.35-.21-.62-.36a4.93,4.93,0,0,0-1-.37,6.4,6.4,0,0,0-1.56-.16,4.42,4.42,0,0,0-2.15.53A3.88,3.88,0,0,0,4.56,5.16,5.21,5.21,0,0,0,4,7.7a6.69,6.69,0,0,0,.5,2.67A3.92,3.92,0,0,0,6,12.15a4.3,4.3,0,0,0,2.42.64,5.56,5.56,0,0,0,1.33-.16,8.34,8.34,0,0,0,1.22-.39,3,3,0,0,0,.8-.45V15c-.26.11-.57.22-.93.35a9.65,9.65,0,0,1-1.24.32A8.62,8.62,0,0,1,8,15.79a9,9,0,0,1-4.34-1A6.46,6.46,0,0,1,.92,12.08,8.9,8.9,0,0,1,0,7.92Z"/><path d="M18,15.66,12.4.17h4.12L19,8l.77,3,.77-3L22.84.17H27L21.38,15.66Z"/></g></g></svg>