<svg xmlns="http://www.w3.org/2000/svg" viewBox="0 0 319.02 49.26"><defs><style>.cls-1{fill:#1d1d1b;}</style></defs><g id="Calque_2" data-name="Calque 2"><g id="Calque_1-2" data-name="Calque 1"><path class="cls-1" d="M.26,28.63V9.13H6l.14,2.11a9.86,9.86,0,0,1,1.67-1.09,12.41,12.41,0,0,1,2.22-.91,9.38,9.38,0,0,1,2.48-.39,6.58,6.58,0,0,1,3.25.65,4.3,4.3,0,0,1,2,2.36,12.25,12.25,0,0,1,.66,4.45V28.63h-6.3V17.5a8.51,8.51,0,0,0-.23-2.22,1.86,1.86,0,0,0-.75-1.14,2.53,2.53,0,0,0-1.44-.31,4.87,4.87,0,0,0-1.58.31,4.4,4.4,0,0,0-1.56.94V28.63ZM18.19,15.22l-1.06-3.88a9.62,9.62,0,0,1,1.44-1,11.19,11.19,0,0,1,2.35-1.05,9.63,9.63,0,0,1,3-.43,7.46,7.46,0,0,1,3.37.67,4.56,4.56,0,0,1,2.15,2.33,11,11,0,0,1,.75,4.49V28.63H23.86V17.46a8.47,8.47,0,0,0-.23-2.21,1.85,1.85,0,0,0-.76-1.12,2.71,2.71,0,0,0-1.46-.3,3.86,3.86,0,0,0-1.88.47A6.05,6.05,0,0,0,18.19,15.22Z"/><path class="cls-1" d="M39.54,28.91a6.79,6.79,0,0,1-3.36-.8,5.54,5.54,0,0,1-2.2-2.2,6.57,6.57,0,0,1-.78-3.23,4.84,4.84,0,0,1,.94-3,5.89,5.89,0,0,1,2.56-1.95A11.59,11.59,0,0,1,39.26,17,23.54,23.54,0,0,1,42,16.64c.93-.06,1.8-.09,2.62-.09l.91,1.12-.91,1.93a11.21,11.21,0,0,0-1.27.1,11,11,0,0,0-1.24.21,4.18,4.18,0,0,0-.92.29,3.32,3.32,0,0,0-1,.67,2,2,0,0,0-.48,1.5,2.42,2.42,0,0,0,.76,2A2.68,2.68,0,0,0,42.2,25a4.27,4.27,0,0,0,1-.12,4.87,4.87,0,0,0,.89-.31,1.87,1.87,0,0,0,.56-.38l1,1.3L45,27a9.43,9.43,0,0,1-2.13,1.31A7.79,7.79,0,0,1,39.54,28.91ZM51,28.63H45V25.72h-.31V15.4a1.8,1.8,0,0,0-.71-1.7,4.16,4.16,0,0,0-2-.4,17.43,17.43,0,0,0-2.34.17,19.16,19.16,0,0,0-2.35.49,11.58,11.58,0,0,0-2,.71L33.94,11A11,11,0,0,1,36,10a21.12,21.12,0,0,1,3.05-.85,17.26,17.26,0,0,1,3.45-.35,13.9,13.9,0,0,1,4.92.72,4.84,4.84,0,0,1,2.68,2.33,9.31,9.31,0,0,1,.84,4.3Z"/><path class="cls-1" d="M62.11,28.91a6.81,6.81,0,0,1-3.35-.7A4,4,0,0,1,57,26.1a9.67,9.67,0,0,1-.55-3.52V13.3H54.17V9.94a14.15,14.15,0,0,0,2.13-.76A2.48,2.48,0,0,0,57.53,8L58,7c.15-.38.3-.77.47-1.18l.47-1.15h3.85V9.13h5V13.3h-5v6.93a12.9,12.9,0,0,0,.2,2.66A1.49,1.49,0,0,0,63.63,24a3.33,3.33,0,0,0,1.35.22,4.83,4.83,0,0,0,1-.11A6.86,6.86,0,0,0,67,23.78a3.94,3.94,0,0,0,.81-.36l.73,3.5a5.2,5.2,0,0,1-1.44.91,11.47,11.47,0,0,1-2.3.77A11.66,11.66,0,0,1,62.11,28.91Z"/><path class="cls-1" d="M71.88,28.63V.21h6.33V7.52l-.35,4.38-.18-.52a8.84,8.84,0,0,1,1.6-1.14,10.58,10.58,0,0,1,2.18-1A8.53,8.53,0,0,1,84,8.85a5.48,5.48,0,0,1,4.69,1.78q1.52,1.86,1.51,5.79V28.63H83.81V17.5a5,5,0,0,0-.61-3,2.21,2.21,0,0,0-1.87-.69,5.42,5.42,0,0,0-1.5.27,3.91,3.91,0,0,0-1.62,1V28.63Z"/><path class="cls-1" d="M97.88,6.79a3.56,3.56,0,0,1-2.51-.92,3,3,0,0,1-1-2.34,3.06,3.06,0,0,1,.53-1.76A3.75,3.75,0,0,1,96.3.48,3.83,3.83,0,0,1,98.2,0a3.53,3.53,0,0,1,2.51.9,3.11,3.11,0,0,1,1,2.35,3.34,3.34,0,0,1-1.1,2.49A3.75,3.75,0,0,1,97.88,6.79ZM95,28.63V9.13h6.33v19.5Z"/><path class="cls-1" d="M115.1,28.91q-4.72,0-7.21-2.69a10.5,10.5,0,0,1-2.49-7.43,10.91,10.91,0,0,1,1.16-5.07,8.73,8.73,0,0,1,3.33-3.54,10.2,10.2,0,0,1,5.28-1.29,12.47,12.47,0,0,1,3,.36,7,7,0,0,1,2.61,1.24,6.15,6.15,0,0,1,1.85,2.43,9.46,9.46,0,0,1,.72,3.88c0,.7,0,1.37-.06,2s-.09,1.16-.15,1.58H108.66l.35-3.15h8.47a8.6,8.6,0,0,0-.13-2.37,2.55,2.55,0,0,0-.79-1.43A2.35,2.35,0,0,0,115,13a2.88,2.88,0,0,0-1.86.6A3.85,3.85,0,0,0,112,15.63a16,16,0,0,0-.35,4.08,5.74,5.74,0,0,0,.62,2.73A3.47,3.47,0,0,0,114,24a6.62,6.62,0,0,0,2.61.47,15.36,15.36,0,0,0,2-.14,16.19,16.19,0,0,0,1.91-.37,7,7,0,0,0,1.36-.47l1,3.36a7.44,7.44,0,0,1-1.79,1,14.24,14.24,0,0,1-2.66.78A16,16,0,0,1,115.1,28.91Z"/><path class="cls-1" d="M133.51,28.91a8.12,8.12,0,0,1-3.44-.61,4.45,4.45,0,0,1-2-1.74,7,7,0,0,1-.9-2.63,22.53,22.53,0,0,1-.23-3.31V9.13h6.3V20.75a7.13,7.13,0,0,0,.28,2.25,1.83,1.83,0,0,0,.86,1.07,3.28,3.28,0,0,0,1.45.29,4.22,4.22,0,0,0,1.13-.15,5.3,5.3,0,0,0,1-.36,3.07,3.07,0,0,0,.66-.4V9.13H145V28.91h-4.58a1.61,1.61,0,0,1-.89-.19.94.94,0,0,1-.3-.83V26.67l.14.32a7.45,7.45,0,0,1-1.68,1,12.19,12.19,0,0,1-2.09.69A9.56,9.56,0,0,1,133.51,28.91Z"/><path class="cls-1" d="M156.15.25h6.23v7l-.17,4.34.17.1V25.66l-6.23,1.88Zm9,28.73a28.24,28.24,0,0,1-3.06-.17c-1-.11-2-.24-2.8-.41s-1.56-.32-2.12-.48a3.72,3.72,0,0,1-1-.38l6.23-3.39a1.66,1.66,0,0,0,1,.45,8.18,8.18,0,0,0,1.7.15,3,3,0,0,0,2-.73,4.82,4.82,0,0,0,1.37-2.11,10,10,0,0,0,.5-3.36c0-1.93-.31-3.23-.92-3.93a3,3,0,0,0-2.37-1,5.22,5.22,0,0,0-1.87.33,5.69,5.69,0,0,0-1.32.68l-.66-3.25a9.18,9.18,0,0,1,1.15-1,7,7,0,0,1,1.95-1,8.53,8.53,0,0,1,2.92-.43,7.5,7.5,0,0,1,3.82,1A7.19,7.19,0,0,1,174.35,13a11.39,11.39,0,0,1,1.05,5.21,12.29,12.29,0,0,1-1.26,5.73,9.07,9.07,0,0,1-3.56,3.75A10.61,10.61,0,0,1,165.15,29Z"/><path class="cls-1" d="M187.3,28.91a11.34,11.34,0,0,1-4.57-.83,7.73,7.73,0,0,1-3-2.29,9.13,9.13,0,0,1-1.65-3.33,14.72,14.72,0,0,1-.49-4,10.36,10.36,0,0,1,1.35-5.25A8.42,8.42,0,0,1,182.47,10a11.74,11.74,0,0,1,5.18-1.1,10.16,10.16,0,0,1,5.75,1.44,8,8,0,0,1,3.07,3.79,13.42,13.42,0,0,1,.88,5.17A10.46,10.46,0,0,1,196,24.56a8.32,8.32,0,0,1-3.55,3.25A11.71,11.71,0,0,1,187.3,28.91Zm.14-4.37a2.67,2.67,0,0,0,2.6-1.38,9.11,9.11,0,0,0,.73-4.16,12.84,12.84,0,0,0-.3-2.87,4.59,4.59,0,0,0-1-2.09,2.44,2.44,0,0,0-1.92-.78,2.75,2.75,0,0,0-2.65,1.39,8.67,8.67,0,0,0-.75,4,12.82,12.82,0,0,0,.31,2.94,4.58,4.58,0,0,0,1,2.12A2.54,2.54,0,0,0,187.44,24.54Z"/><path class="cls-1" d="M207.11,28.91a8.15,8.15,0,0,1-3.44-.61,4.42,4.42,0,0,1-2-1.74,7.18,7.18,0,0,1-.91-2.63,22.6,22.6,0,0,1-.22-3.31V9.13h6.3V20.75a6.85,6.85,0,0,0,.28,2.25,1.78,1.78,0,0,0,.85,1.07,3.3,3.3,0,0,0,1.46.29,4.33,4.33,0,0,0,1.13-.15,5.89,5.89,0,0,0,1-.36,3.23,3.23,0,0,0,.65-.4V9.13h6.34V28.91H214a1.66,1.66,0,0,1-.89-.19.94.94,0,0,1-.3-.83V26.67l.14.32a7,7,0,0,1-1.68,1,11.91,11.91,0,0,1-2.09.69A9.56,9.56,0,0,1,207.11,28.91Z"/><path class="cls-1" d="M222.27,19.08a12.34,12.34,0,0,1,1-5.17,8.18,8.18,0,0,1,3.23-3.66,10.36,10.36,0,0,1,5.59-1.36,17.33,17.33,0,0,1,3.44.3,5.74,5.74,0,0,1,1.95.64l-.7,4.76a6.9,6.9,0,0,0-1.5-.55,8.83,8.83,0,0,0-2.32-.25,4.91,4.91,0,0,0-2,.44,3.73,3.73,0,0,0-1.65,1.49,5.85,5.85,0,0,0-.69,2.9,7.08,7.08,0,0,0,.55,3.2,3.61,3.61,0,0,0,1.6,1.71,4.85,4.85,0,0,0,2.23.51,11.84,11.84,0,0,0,2.3-.21,7.55,7.55,0,0,0,1.69-.49l.8,4a4.76,4.76,0,0,1-2.54,1.21,17,17,0,0,1-3.62.37,9.93,9.93,0,0,1-5.3-1.29,7.85,7.85,0,0,1-3.1-3.5A12.16,12.16,0,0,1,222.27,19.08Z"/><path class="cls-1" d="M241.17,28.63V.21h6.33V7.52l-.35,4.38-.17-.52a8.73,8.73,0,0,1,1.59-1.14,10.44,10.44,0,0,1,2.19-1,8.42,8.42,0,0,1,2.52-.42A5.51,5.51,0,0,1,258,10.63q1.5,1.86,1.5,5.79V28.63H253.1V17.5a5,5,0,0,0-.61-3,2.21,2.21,0,0,0-1.87-.69,5.42,5.42,0,0,0-1.5.27,3.91,3.91,0,0,0-1.62,1V28.63Z"/><path class="cls-1" d="M268.82,28.91a6.75,6.75,0,0,1-3.35-.8,5.57,5.57,0,0,1-2.21-2.2,6.57,6.57,0,0,1-.78-3.23,4.84,4.84,0,0,1,.94-3A5.89,5.89,0,0,1,266,17.75a11.76,11.76,0,0,1,2.56-.77,23.54,23.54,0,0,1,2.77-.34c.93-.06,1.8-.09,2.62-.09l.91,1.12-.91,1.93a11.4,11.4,0,0,0-1.27.1,11,11,0,0,0-1.24.21,4.18,4.18,0,0,0-.92.29,3.44,3.44,0,0,0-1,.67,2,2,0,0,0-.48,1.5,2.45,2.45,0,0,0,.76,2,2.7,2.7,0,0,0,1.73.62,4.21,4.21,0,0,0,1-.12,4.62,4.62,0,0,0,.89-.31,1.87,1.87,0,0,0,.56-.38l1,1.3-.7,1.51a9.12,9.12,0,0,1-2.12,1.31A7.81,7.81,0,0,1,268.82,28.91Zm11.41-.28h-6V25.72h-.31V15.4a1.8,1.8,0,0,0-.71-1.7,4.13,4.13,0,0,0-2-.4,17.43,17.43,0,0,0-2.34.17,19.56,19.56,0,0,0-2.35.49,11.58,11.58,0,0,0-2,.71L263.22,11a11.6,11.6,0,0,1,2.07-.94,21.49,21.49,0,0,1,3-.85,17.41,17.41,0,0,1,3.45-.35,13.9,13.9,0,0,1,4.92.72,4.86,4.86,0,0,1,2.69,2.33,9.45,9.45,0,0,1,.83,4.3Z"/><path class="cls-1" d="M285,28.63V9.13h5.53l.31,3.47.49.52V28.63Zm5.95-11.48-.25-4.59a4.93,4.93,0,0,1,1.18-1.9,6,6,0,0,1,2-1.32,6.56,6.56,0,0,1,2.53-.49,5.93,5.93,0,0,1,.84.06,1.69,1.69,0,0,1,.59.15v6.27a2.84,2.84,0,0,0-.71-.32,4.55,4.55,0,0,0-1.39-.17,6,6,0,0,0-2.35.41,5.28,5.28,0,0,0-1.54,1A8.24,8.24,0,0,0,290.94,17.15Z"/><path class="cls-1" d="M307.28,28.91a7.14,7.14,0,0,1-6.58-4.12,11.51,11.51,0,0,1-1.05-5.23,12.48,12.48,0,0,1,1.22-5.7,8.61,8.61,0,0,1,3.43-3.68,10.09,10.09,0,0,1,5.19-1.29,10.27,10.27,0,0,1,2.94.35,5.47,5.47,0,0,1,1.43.59l-1.08,4a2.41,2.41,0,0,0-1.15-.44,10.62,10.62,0,0,0-1.65-.13,3.07,3.07,0,0,0-2,.66,4.25,4.25,0,0,0-1.34,2,9.65,9.65,0,0,0-.49,3.34,6.19,6.19,0,0,0,.87,3.83,2.9,2.9,0,0,0,2.38,1.1,6.43,6.43,0,0,0,1.87-.28,5.43,5.43,0,0,0,1.46-.66l.63,3.18a8.37,8.37,0,0,1-1.18,1,7.61,7.61,0,0,1-2,1A8.77,8.77,0,0,1,307.28,28.91Zm6-.28V26.32l-.53-.39V13.16l.14-.14-.14-5.74V.21H319V28.63Z"/><path class="cls-1" d="M.49,39.27a3.77,3.77,0,0,1,1.44-1.6,4.27,4.27,0,0,1,2.28-.59,4.63,4.63,0,0,1,1.12.12c.3.08.67.19,1.1.33l0,2.31h-1l-.33-1.53q-.09-.42-1.14-.42a1.93,1.93,0,0,0-1.66.85,4.09,4.09,0,0,0-.6,2.4,4.49,4.49,0,0,0,.68,2.7,2.1,2.1,0,0,0,1.77.92,3.68,3.68,0,0,0,1.2-.2,4.6,4.6,0,0,0,1-.46l.28.6a3.76,3.76,0,0,1-1.19.76,4.13,4.13,0,0,1-1.6.33,3.73,3.73,0,0,1-2.08-.55A3.44,3.44,0,0,1,.43,43.72,5.33,5.33,0,0,1,0,41.52,5,5,0,0,1,.49,39.27Z"/><path class="cls-1" d="M8.83,34.44l-1.26-.17v-.64L10,33.34h0l.33.23v3.48l-.06,1.27a5.28,5.28,0,0,1,1.32-.82,4,4,0,0,1,1.69-.39,2.58,2.58,0,0,1,1.47.36,1.92,1.92,0,0,1,.74,1.1,7.64,7.64,0,0,1,.21,2v4.19l1.05.13v.74H13.21v-.74l1-.13v-4.2a6.32,6.32,0,0,0-.12-1.39,1.29,1.29,0,0,0-.45-.75,1.68,1.68,0,0,0-1-.25,2.91,2.91,0,0,0-1.16.27,5.11,5.11,0,0,0-1.08.63v5.69l1,.13v.74H7.93v-.74l.9-.12Z"/><path class="cls-1" d="M19,44.61A5,5,0,0,1,18,41.44a5,5,0,0,1,.49-2.29,3.69,3.69,0,0,1,1.39-1.53,3.85,3.85,0,0,1,2-.54,2.93,2.93,0,0,1,2.17.77,3.12,3.12,0,0,1,.82,2.21,8,8,0,0,1-.1,1.4H19.67a4.1,4.1,0,0,0,.68,2.39,2.18,2.18,0,0,0,1.88.91,3.79,3.79,0,0,0,1.25-.22,3.13,3.13,0,0,0,1-.52l.28.66a3.56,3.56,0,0,1-1.29.78,4.8,4.8,0,0,1-1.74.33A3.35,3.35,0,0,1,19,44.61Zm4.3-4a4.48,4.48,0,0,0,0-.64,2.76,2.76,0,0,0-.42-1.54,1.43,1.43,0,0,0-1.25-.56,1.71,1.71,0,0,0-1.39.63,3.69,3.69,0,0,0-.59,2.11Z"/><path class="cls-1" d="M26.4,44.89l1.12-.09V38.46l-1.08-.27v-.81l2.07-.27h0l.33.27v.27l0,1.17h0a3.92,3.92,0,0,1,.54-.66,4.06,4.06,0,0,1,1-.74,2.66,2.66,0,0,1,1.33-.34,1.43,1.43,0,0,1,.5.07v1.68a1.28,1.28,0,0,0-.34-.14,2,2,0,0,0-.52-.07,3.88,3.88,0,0,0-2.31.77v5.4l1.91.12v.72H26.4Z"/><path class="cls-1" d="M33.7,39.27a3.77,3.77,0,0,1,1.44-1.6,4.27,4.27,0,0,1,2.28-.59,4.63,4.63,0,0,1,1.12.12c.3.08.67.19,1.1.33l-.06,2.31h-1l-.33-1.53q-.09-.42-1.14-.42a1.93,1.93,0,0,0-1.66.85,4.09,4.09,0,0,0-.6,2.4,4.49,4.49,0,0,0,.68,2.7,2.1,2.1,0,0,0,1.77.92,3.68,3.68,0,0,0,1.2-.2,4.6,4.6,0,0,0,1-.46l.28.6a3.76,3.76,0,0,1-1.19.76,4.13,4.13,0,0,1-1.6.33,3.73,3.73,0,0,1-2.08-.55,3.44,3.44,0,0,1-1.27-1.52,5.33,5.33,0,0,1-.43-2.2A5,5,0,0,1,33.7,39.27Z"/><path class="cls-1" d="M42,34.44l-1.26-.17v-.64l2.45-.29h0l.33.23v3.48l-.06,1.27a5.28,5.28,0,0,1,1.32-.82,4,4,0,0,1,1.69-.39,2.58,2.58,0,0,1,1.47.36,1.92,1.92,0,0,1,.74,1.1,7.64,7.64,0,0,1,.21,2v4.19l1,.13v.74H46.42v-.74l1-.13v-4.2a6.32,6.32,0,0,0-.12-1.39,1.29,1.29,0,0,0-.45-.75,1.68,1.68,0,0,0-1-.25,2.91,2.91,0,0,0-1.16.27,5.11,5.11,0,0,0-1.08.63v5.69l1,.13v.74h-3.5v-.74l.9-.12Z"/><path class="cls-1" d="M52.19,44.61a5,5,0,0,1-.95-3.17,5,5,0,0,1,.49-2.29,3.69,3.69,0,0,1,1.39-1.53,3.85,3.85,0,0,1,2-.54,3,3,0,0,1,2.17.77,3.12,3.12,0,0,1,.82,2.21,7,7,0,0,1-.11,1.4H52.87a4.1,4.1,0,0,0,.69,2.39,2.18,2.18,0,0,0,1.88.91,3.79,3.79,0,0,0,1.25-.22,3,3,0,0,0,1-.52l.29.66a3.56,3.56,0,0,1-1.29.78,4.8,4.8,0,0,1-1.74.33A3.35,3.35,0,0,1,52.19,44.61Zm4.3-4a4.49,4.49,0,0,0,0-.64,2.68,2.68,0,0,0-.41-1.54,1.43,1.43,0,0,0-1.25-.56,1.71,1.71,0,0,0-1.39.63,3.69,3.69,0,0,0-.59,2.11Z"/><path class="cls-1" d="M65.78,45.6a.67.67,0,0,1-.2-.54v-.51a4.71,4.71,0,0,1-1.24.87,3.25,3.25,0,0,1-1.49.37,2.36,2.36,0,0,1-2-.75,4.05,4.05,0,0,1-.59-2.47V38.22L59.44,38v-.66l2.1-.2h0l.28.18v5.15A5.93,5.93,0,0,0,62,43.81a1.32,1.32,0,0,0,.45.72,1.65,1.65,0,0,0,.94.23,2.52,2.52,0,0,0,1.12-.26,3.75,3.75,0,0,0,.92-.6V38.22L64.32,38v-.66l2.28-.2h0l.35.18v7.56h.9l0,.68-.72.16a3.88,3.88,0,0,1-.72.06A1,1,0,0,1,65.78,45.6Z"/><path class="cls-1" d="M69.24,44.89l1.12-.09V38.46l-1.08-.27v-.81l2.07-.27h0l.33.27v.27l0,1.17h0a3.92,3.92,0,0,1,.54-.66,4.06,4.06,0,0,1,1-.74,2.66,2.66,0,0,1,1.33-.34,1.43,1.43,0,0,1,.5.07v1.68a1.28,1.28,0,0,0-.34-.14,2,2,0,0,0-.52-.07,3.88,3.88,0,0,0-2.31.77v5.4l1.91.12v.72H69.24Z"/><path class="cls-1" d="M87.52,43.51A4.11,4.11,0,0,1,86,45.18a4.18,4.18,0,0,1-2.28.61,5.54,5.54,0,0,1-.78-.06,3.57,3.57,0,0,1-.67-.15l0,1.26v1.52l1.56.16v.74H79.71v-.74l1.08-.16v-9.9l-1.1-.27v-.81l2.13-.27h0l.32.27v.88a4.06,4.06,0,0,1,1.12-.84,3.36,3.36,0,0,1,3.12.09,3.11,3.11,0,0,1,1.19,1.35,5.77,5.77,0,0,1-.08,4.65ZM83.1,38.37a2.65,2.65,0,0,0-.77.52v5.66a.94.94,0,0,0,.54.32,2.75,2.75,0,0,0,.93.14,2.25,2.25,0,0,0,1.87-.91,4.42,4.42,0,0,0,.71-2.76,3.87,3.87,0,0,0-.62-2.42,1.93,1.93,0,0,0-1.6-.79A2.39,2.39,0,0,0,83.1,38.37Z"/><path class="cls-1" d="M90.06,39.1a3.87,3.87,0,0,1,3.4-2,3.43,3.43,0,0,1,2.85,1.2,5,5,0,0,1,1,3.15,4.72,4.72,0,0,1-.56,2.35,3.77,3.77,0,0,1-1.46,1.5,3.88,3.88,0,0,1-1.94.51,3.4,3.4,0,0,1-2.84-1.2,4.89,4.89,0,0,1-1-3.15A4.71,4.71,0,0,1,90.06,39.1Zm4.92,5a4.68,4.68,0,0,0,.55-2.53A5.74,5.74,0,0,0,95,38.91a1.71,1.71,0,0,0-1.63-1,1.82,1.82,0,0,0-1.6.86,4.67,4.67,0,0,0-.56,2.53A5.6,5.6,0,0,0,91.75,44a1.75,1.75,0,0,0,1.64,1A1.79,1.79,0,0,0,95,44.08Z"/><path class="cls-1" d="M100.17,44.43a1.28,1.28,0,0,0,.64.4,2.88,2.88,0,0,0,1,.18,2,2,0,0,0,1.26-.33,1.11,1.11,0,0,0,.41-.91,1.07,1.07,0,0,0-.26-.71,2.27,2.27,0,0,0-.71-.53c-.3-.15-.74-.34-1.31-.56a4.26,4.26,0,0,1-1.69-1,2.37,2.37,0,0,1-.53-1.6,1.78,1.78,0,0,1,.4-1.16,2.62,2.62,0,0,1,1.09-.77,4.28,4.28,0,0,1,1.55-.28,6.09,6.09,0,0,1,1.21.11,7,7,0,0,1,.83.21l.42.13v1.86h-.91l-.3-1.11a.76.76,0,0,0-.48-.3,2.65,2.65,0,0,0-.87-.13,1.83,1.83,0,0,0-1.09.3,1,1,0,0,0-.41.81,1.16,1.16,0,0,0,.22.74,1.53,1.53,0,0,0,.54.47q.33.18.9.42l.3.12a10.8,10.8,0,0,1,1.37.63,2.89,2.89,0,0,1,.88.79,2,2,0,0,1,.35,1.19,2.13,2.13,0,0,1-.86,1.77,3.83,3.83,0,0,1-2.37.66,6,6,0,0,1-1.53-.2,9.16,9.16,0,0,1-1.32-.41V43.26h1Z"/><path class="cls-1" d="M107.79,45.39a1.78,1.78,0,0,1-.42-1.34V38.29h-1.08v-.67l.42-.11a1.89,1.89,0,0,0,.46-.16.92.92,0,0,0,.38-.54,7.81,7.81,0,0,0,.28-.92l.2-.75h.88l0,2.16h2.51v1h-2.51V42.9a8.09,8.09,0,0,0,.06,1.2.6.6,0,0,0,.22.45,1.22,1.22,0,0,0,.59.1,4.34,4.34,0,0,0,.9-.1,3.37,3.37,0,0,0,.75-.23l.23.68a4.14,4.14,0,0,1-1.16.52,5,5,0,0,1-1.47.26A1.8,1.8,0,0,1,107.79,45.39Z"/><path class="cls-1" d="M114.34,45.34A3.13,3.13,0,0,1,113.15,44a5.37,5.37,0,0,1-.44-2.29,5.14,5.14,0,0,1,.52-2.33,4,4,0,0,1,1.51-1.65,4.3,4.3,0,0,1,2.32-.61,5.47,5.47,0,0,1,1.39.16v-2.8l-1.53-.18v-.65l2.7-.27h0l.33.24V44.86h.87v.69l-.83.17a4.56,4.56,0,0,1-.75.06.87.87,0,0,1-.55-.14.73.73,0,0,1-.17-.57v-.48a3.32,3.32,0,0,1-1.1.86,3.22,3.22,0,0,1-1.48.34A3.15,3.15,0,0,1,114.34,45.34Zm3.35-.87a2.19,2.19,0,0,0,.76-.61V38.37a1,1,0,0,0-.56-.32,2.89,2.89,0,0,0-.94-.15,2.22,2.22,0,0,0-1.86.9,4.4,4.4,0,0,0-.7,2.75A3.85,3.85,0,0,0,115,44a1.93,1.93,0,0,0,1.59.78A2.44,2.44,0,0,0,117.69,44.47Z"/><path class="cls-1" d="M122.77,39.1a3.9,3.9,0,0,1,3.41-2,3.4,3.4,0,0,1,2.84,1.2,4.89,4.89,0,0,1,.95,3.15,4.72,4.72,0,0,1-.55,2.35,3.83,3.83,0,0,1-1.46,1.5,3.94,3.94,0,0,1-1.95.51,3.41,3.41,0,0,1-2.84-1.2,5,5,0,0,1-1-3.15A4.71,4.71,0,0,1,122.77,39.1Zm4.92,5a4.67,4.67,0,0,0,.56-2.53,5.74,5.74,0,0,0-.51-2.64,1.73,1.73,0,0,0-1.64-1,1.79,1.79,0,0,0-1.59.86,4.58,4.58,0,0,0-.57,2.53,5.59,5.59,0,0,0,.53,2.64,1.73,1.73,0,0,0,1.63,1A1.79,1.79,0,0,0,127.69,44.08Z"/><path class="cls-1" d="M131.79,39.27a3.86,3.86,0,0,1,1.45-1.6,4.25,4.25,0,0,1,2.28-.59,4.49,4.49,0,0,1,1.11.12q.47.12,1.11.33l-.06,2.31h-1l-.33-1.53q-.09-.42-1.14-.42a1.93,1.93,0,0,0-1.66.85,4,4,0,0,0-.61,2.4,4.48,4.48,0,0,0,.69,2.7,2.1,2.1,0,0,0,1.77.92,3.58,3.58,0,0,0,1.19-.2,4.17,4.17,0,0,0,1-.46l.29.6a3.7,3.7,0,0,1-1.2.76,4,4,0,0,1-1.59.33,3.73,3.73,0,0,1-2.08-.55,3.44,3.44,0,0,1-1.27-1.52,5.33,5.33,0,0,1-.43-2.2A5.15,5.15,0,0,1,131.79,39.27Z"/><path class="cls-1" d="M140.62,45.39a1.78,1.78,0,0,1-.42-1.34V38.29h-1.08v-.67l.42-.11a2,2,0,0,0,.47-.16.91.91,0,0,0,.37-.54,7.42,7.42,0,0,0,.29-.92c.11-.42.17-.67.19-.75h.89l0,2.16h2.5v1h-2.5V42.9a8.5,8.5,0,0,0,.05,1.2.6.6,0,0,0,.22.45,1.27,1.27,0,0,0,.6.1,4.25,4.25,0,0,0,.89-.1,3.48,3.48,0,0,0,.76-.23l.22.68a4.14,4.14,0,0,1-1.16.52,4.9,4.9,0,0,1-1.46.26A1.83,1.83,0,0,1,140.62,45.39Z"/><path class="cls-1" d="M146.14,39.1a3.87,3.87,0,0,1,3.41-2,3.41,3.41,0,0,1,2.84,1.2,5,5,0,0,1,1,3.15,4.72,4.72,0,0,1-.55,2.35,3.79,3.79,0,0,1-1.47,1.5,3.88,3.88,0,0,1-1.94.51,3.4,3.4,0,0,1-2.84-1.2,4.89,4.89,0,0,1-.95-3.15A4.71,4.71,0,0,1,146.14,39.1Zm4.92,5a4.67,4.67,0,0,0,.56-2.53,5.74,5.74,0,0,0-.51-2.64,1.73,1.73,0,0,0-1.64-1,1.79,1.79,0,0,0-1.59.86,4.58,4.58,0,0,0-.57,2.53,5.59,5.59,0,0,0,.53,2.64,1.73,1.73,0,0,0,1.63,1A1.79,1.79,0,0,0,151.06,44.08Z"/><path class="cls-1" d="M154.89,44.89,156,44.8V38.46l-1.08-.27v-.81l2.07-.27h0l.33.27v.27l0,1.17h0a3.92,3.92,0,0,1,.54-.66,4.06,4.06,0,0,1,1-.74,2.66,2.66,0,0,1,1.33-.34,1.43,1.43,0,0,1,.5.07v1.68a1.45,1.45,0,0,0-.34-.14,2,2,0,0,0-.52-.07,3.88,3.88,0,0,0-2.31.77v5.4l1.91.12v.72h-4.59Z"/><path class="cls-1" d="M163.29,41.3a8.87,8.87,0,0,1,3.57-.71v-.42a3.3,3.3,0,0,0-.15-1.11,1,1,0,0,0-.52-.59,2.27,2.27,0,0,0-1-.19,4,4,0,0,0-1.38.22,9,9,0,0,0-1.2.53l-.38-.78a4.16,4.16,0,0,1,.72-.44,7.39,7.39,0,0,1,1.22-.48,4.72,4.72,0,0,1,1.38-.21,3.89,3.89,0,0,1,1.68.3,1.71,1.71,0,0,1,.9.93,4.58,4.58,0,0,1,.27,1.73v4.81h.88v.66c-.2.05-.45.1-.76.15a5,5,0,0,1-.8.08.88.88,0,0,1-.57-.13c-.1-.08-.15-.27-.15-.56v-.5a5.37,5.37,0,0,1-1.1.83,2.93,2.93,0,0,1-1.48.37,2.59,2.59,0,0,1-1.79-.62,2.22,2.22,0,0,1-.71-1.79A2.19,2.19,0,0,1,163.29,41.3Zm2.64,3.23a4.82,4.82,0,0,0,.93-.57V41.38a4.79,4.79,0,0,0-2.47.51,1.48,1.48,0,0,0-.83,1.31,1.56,1.56,0,0,0,.4,1.19,1.45,1.45,0,0,0,1.07.38A2.16,2.16,0,0,0,165.93,44.53Z"/><path class="cls-1" d="M171.54,34.44l-1.22-.17v-.64l2.42-.29h0l.33.23v11.2l1.27.12v.74h-4.05v-.74l1.22-.13Z"/><path class="cls-1" d="M181.08,44.57a5.41,5.41,0,0,1-1-3.65V35.41L179,35.23v-.75h4v.75l-1.27.2v5.65a4.73,4.73,0,0,0,.72,2.94,2.56,2.56,0,0,0,2.1.9,2.33,2.33,0,0,0,2-1,4.75,4.75,0,0,0,.69-2.79V35.43l-1.26-.2v-.75h3.49v.75l-1.09.18V41.1a4.86,4.86,0,0,1-1.11,3.49,3.92,3.92,0,0,1-3,1.16A4.12,4.12,0,0,1,181.08,44.57Z"/><path class="cls-1" d="M192.51,45.09a4.34,4.34,0,0,1-1.59-2,7.62,7.62,0,0,1-.54-3,6.63,6.63,0,0,1,.65-3,4.81,4.81,0,0,1,1.79-2,4.72,4.72,0,0,1,2.57-.72A4.4,4.4,0,0,1,199,35.84a6.17,6.17,0,0,1,1.24,4.09,6.81,6.81,0,0,1-.66,3.08,5.1,5.1,0,0,1-1.83,2.06,4.88,4.88,0,0,1-2.61.72A4.58,4.58,0,0,1,192.51,45.09Zm.49-8.68a6.75,6.75,0,0,0-.84,3.71,6.69,6.69,0,0,0,.82,3.57A2.57,2.57,0,0,0,195.27,45a2.59,2.59,0,0,0,2.28-1.31,6.85,6.85,0,0,0,.85-3.75,6.54,6.54,0,0,0-.81-3.53,2.58,2.58,0,0,0-2.29-1.27A2.64,2.64,0,0,0,193,36.41Z"/><path class="cls-1" d="M202.81,45.39a1.78,1.78,0,0,1-.42-1.34V38.29h-1.08v-.67l.42-.11a2,2,0,0,0,.47-.16.91.91,0,0,0,.37-.54,7.42,7.42,0,0,0,.29-.92c.11-.42.17-.67.19-.75h.89l0,2.16h2.5v1H204V42.9a8.5,8.5,0,0,0,.05,1.2.6.6,0,0,0,.22.45,1.27,1.27,0,0,0,.6.1,4.25,4.25,0,0,0,.89-.1,3.48,3.48,0,0,0,.76-.23l.22.68a4.14,4.14,0,0,1-1.16.52,4.9,4.9,0,0,1-1.46.26A1.83,1.83,0,0,1,202.81,45.39Z"/><path class="cls-1" d="M209.07,45.39a1.78,1.78,0,0,1-.42-1.34V38.29h-1.08v-.67l.42-.11a1.89,1.89,0,0,0,.46-.16.92.92,0,0,0,.38-.54,7.81,7.81,0,0,0,.28-.92l.2-.75h.88l0,2.16h2.51v1h-2.51V42.9a10.42,10.42,0,0,0,.05,1.2.6.6,0,0,0,.23.45,1.2,1.2,0,0,0,.59.1,4.18,4.18,0,0,0,.89-.1,3.31,3.31,0,0,0,.76-.23L213,45a4.09,4.09,0,0,1-1.17.52,4.85,4.85,0,0,1-1.46.26A1.8,1.8,0,0,1,209.07,45.39Z"/><path class="cls-1" d="M215.44,41.3a8.87,8.87,0,0,1,3.57-.71v-.42a3.3,3.3,0,0,0-.15-1.11,1,1,0,0,0-.52-.59,2.24,2.24,0,0,0-1-.19,3.9,3.9,0,0,0-1.37.22,8.55,8.55,0,0,0-1.21.53l-.37-.78a4.16,4.16,0,0,1,.72-.44,7.26,7.26,0,0,1,1.21-.48,4.72,4.72,0,0,1,1.38-.21,4,4,0,0,1,1.69.3,1.73,1.73,0,0,1,.89.93,4.58,4.58,0,0,1,.27,1.73v4.81h.89v.66c-.2.05-.46.1-.76.15a5.13,5.13,0,0,1-.8.08.88.88,0,0,1-.57-.13c-.1-.08-.15-.27-.15-.56v-.5a5.18,5.18,0,0,1-1.11.83,2.87,2.87,0,0,1-1.47.37,2.63,2.63,0,0,1-1.8-.62,2.25,2.25,0,0,1-.71-1.79A2.19,2.19,0,0,1,215.44,41.3Zm2.64,3.23A4.82,4.82,0,0,0,219,44V41.38a4.82,4.82,0,0,0-2.47.51,1.49,1.49,0,0,0-.83,1.31,1.56,1.56,0,0,0,.4,1.19,1.45,1.45,0,0,0,1.07.38A2.16,2.16,0,0,0,218.08,44.53Z"/><path class="cls-1" d="M221.82,37.3h3.49V38l-1.14.18,1.25,4.41.43,1.9.44-1.92,1.44-5.28h1.47l1.48,5.28.44,1.94.48-1.92,1.21-4.4L231.67,38V37.3h3.05V38l-.8.19-2.32,7.55h-1.41l-1.59-5.3-.39-1.86-.32,1.86-1.51,5.3H225l-2.4-7.56-.76-.18Z"/><path class="cls-1" d="M236.74,41.3a8.87,8.87,0,0,1,3.57-.71v-.42a3.3,3.3,0,0,0-.15-1.11,1,1,0,0,0-.52-.59,2.24,2.24,0,0,0-1-.19,3.9,3.9,0,0,0-1.37.22A8.55,8.55,0,0,0,236,39l-.37-.78a4.16,4.16,0,0,1,.72-.44,7.26,7.26,0,0,1,1.21-.48,4.72,4.72,0,0,1,1.38-.21,4,4,0,0,1,1.69.3,1.73,1.73,0,0,1,.89.93,4.58,4.58,0,0,1,.27,1.73v4.81h.89v.66c-.2.05-.46.1-.76.15a5.13,5.13,0,0,1-.8.08.88.88,0,0,1-.57-.13c-.1-.08-.15-.27-.15-.56v-.5a5.18,5.18,0,0,1-1.11.83,2.87,2.87,0,0,1-1.47.37,2.63,2.63,0,0,1-1.8-.62,2.25,2.25,0,0,1-.71-1.79A2.19,2.19,0,0,1,236.74,41.3Zm2.64,3.23a4.82,4.82,0,0,0,.93-.57V41.38a4.82,4.82,0,0,0-2.47.51A1.49,1.49,0,0,0,237,43.2a1.56,1.56,0,0,0,.4,1.19,1.45,1.45,0,0,0,1.07.38A2.16,2.16,0,0,0,239.38,44.53Z"/><path class="cls-1" d="M245.05,48.28h-1.29l4.1-14.37h1.27Z"/><path class="cls-1" d="M252.69,45.08a4.52,4.52,0,0,1-1.76-2,7.12,7.12,0,0,1-.6-3,6.1,6.1,0,0,1,.71-3,5,5,0,0,1,1.93-2,5.36,5.36,0,0,1,2.76-.72,13.15,13.15,0,0,1,2.78.36l.49.09-.15,2.7h-1l-.38-1.9a1.88,1.88,0,0,0-.73-.31,5.55,5.55,0,0,0-1.26-.13,2.86,2.86,0,0,0-1.71.55,3.57,3.57,0,0,0-1.18,1.61,6.74,6.74,0,0,0-.43,2.55,8.31,8.31,0,0,0,.38,2.57,4.13,4.13,0,0,0,1.14,1.84,2.76,2.76,0,0,0,1.89.68,4.24,4.24,0,0,0,1.22-.14,2.13,2.13,0,0,0,.73-.39l.63-1.47.94.12-.36,2.13a4,4,0,0,0-.93.21c-.36.11-.71.2-1,.27a7.29,7.29,0,0,1-1.25.09A5.28,5.28,0,0,1,252.69,45.08Z"/><path class="cls-1" d="M260.47,44.89l1.25-.15V35.41l-1.17-.19v-.74h2q.42,0,1.14-.06c.5,0,.89-.06,1.17-.06a5.24,5.24,0,0,1,3.14.72,2.61,2.61,0,0,1,.94,2.24,3.47,3.47,0,0,1-.59,2,3,3,0,0,1-1.63,1.2,2.48,2.48,0,0,1,.89.88c.28.41.62,1,1,1.73.31.56.54,1,.71,1.23a.83.83,0,0,0,.47.43l.59.15v.74h-2.07c-.16,0-.34-.17-.54-.52s-.47-.88-.8-1.6-.67-1.41-.94-1.88a2.14,2.14,0,0,0-.78-.89c-1.07,0-1.71,0-1.91,0v4l1.49.15v.74h-4.34Zm6.15-5.59a2.78,2.78,0,0,0,.56-1.88,2.28,2.28,0,0,0-.57-1.67,2.66,2.66,0,0,0-1.94-.58,7.73,7.73,0,0,0-1,.06l-.39,0v4.65c.15,0,.46,0,.93,0h.86A1.9,1.9,0,0,0,266.62,39.3Z"/><path class="cls-1" d="M273.35,45.08a4.46,4.46,0,0,1-1.76-2,7.12,7.12,0,0,1-.6-3,6.09,6.09,0,0,1,.7-3,5,5,0,0,1,1.94-2,5.36,5.36,0,0,1,2.76-.72,13.06,13.06,0,0,1,2.77.36l.5.09-.15,2.7h-1l-.37-1.9a2,2,0,0,0-.73-.31,5.71,5.71,0,0,0-1.27-.13,2.86,2.86,0,0,0-1.71.55,3.64,3.64,0,0,0-1.18,1.61,7,7,0,0,0-.42,2.55,8.31,8.31,0,0,0,.37,2.57,4.13,4.13,0,0,0,1.14,1.84,2.76,2.76,0,0,0,1.89.68,4.2,4.2,0,0,0,1.22-.14,2,2,0,0,0,.73-.39L278.8,43l.95.12-.36,2.13a4,4,0,0,0-.93.21q-.54.16-1,.27a7.21,7.21,0,0,1-1.25.09A5.22,5.22,0,0,1,273.35,45.08Z"/><path class="cls-1" d="M282.4,35.41l-1.18-.18v-.75h4.08v.75l-1.29.18v4h5.28v-4l-1.22-.18v-.75h4v.75l-1.18.18v9.33l1.18.15v.74h-4v-.74l1.23-.15V40.38H284v4.36l1.3.15v.74h-4.12v-.74l1.21-.15Z"/><path class="cls-1" d="M295.47,44.57a5.41,5.41,0,0,1-1-3.65V35.41l-1.06-.18v-.75h4v.75l-1.27.2v5.65a4.73,4.73,0,0,0,.72,2.94,2.56,2.56,0,0,0,2.1.9,2.33,2.33,0,0,0,2-1,4.75,4.75,0,0,0,.69-2.79V35.43l-1.26-.2v-.75h3.49v.75l-1.09.18V41.1a4.86,4.86,0,0,1-1.11,3.49,3.92,3.92,0,0,1-3,1.16A4.12,4.12,0,0,1,295.47,44.57Z"/><path class="cls-1" d="M306.72,35.41l-1.64-.18v-.75h4l2.11,6.75.5,1.91.45-1.91,2.1-6.75h3.94v.75l-1.65.18,1.2,9.32,1.31.16v.74H314.7v-.74l1.36-.15L315.39,38l-.32-2.9-.63,2.16-2.5,7.85h-1l-2.43-7.19-.88-2.83L307.38,38l-.6,6.73,1.48.15v.74h-3.91v-.74l1.27-.15Z"/></g></g></svg>